<svg xmlns="http://www.w3.org/2000/svg" viewBox="0 0 640 240">
  <!-- Rounded rectangle background -->
  <rect x="20" y="20" width="600" height="200" rx="40" ry="40" fill="#E31E24" stroke="#000000" stroke-width="8"/>
  <rect x="28" y="28" width="584" height="184" rx="36" ry="36" fill="#FFFFFF" stroke="#000000" stroke-width="4"/>
  
  <!-- J -->
  <path d="M 100 80 Q 100 70, 110 70 L 140 70 Q 150 70, 150 80 L 150 160 Q 150 180, 130 180 L 100 180 Q 85 180, 85 165 L 85 140 Q 85 125, 100 125 L 110 125 L 110 145 L 100 145 Q 95 145, 95 150 L 95 165 Q 95 170, 100 170 L 130 170 Q 140 170, 140 160 L 140 80 L 110 80 Q 105 80, 105 85 L 105 100 L 100 100 Z" fill="#E31E24"/>
  
  <!-- U -->
  <path d="M 180 70 L 210 70 L 210 155 Q 210 175, 230 175 L 250 175 Q 270 175, 270 155 L 270 70 L 300 70 L 300 155 Q 300 185, 270 185 L 230 185 Q 180 185, 180 155 Z" fill="#E31E24"/>
  
  <!-- L -->
  <path d="M 330 70 L 360 70 L 360 155 L 420 155 L 420 175 L 340 175 Q 330 175, 330 165 Z" fill="#E31E24"/>
  
  <!-- A -->
  <path d="M 460 175 L 445 175 L 455 145 L 505 145 L 515 175 L 530 175 L 490 70 L 470 70 Z M 460 135 L 480 85 L 500 135 Z" fill="#E31E24"/>
  
  <!-- Registered trademark symbol -->
  <circle cx="560" cy="80" r="18" fill="none" stroke="#000000" stroke-width="2"/>
  <text x="560" y="88" font-family="Arial, sans-serif" font-size="24" font-weight="bold" text-anchor="middle" fill="#000000">®</text>
</svg>
